<?xml version="1.0" encoding="UTF-8" standalone="no"?>
<!DOCTYPE svg PUBLIC "-//W3C//DTD SVG 1.1//EN" "http://www.w3.org/Graphics/SVG/1.1/DTD/svg11.dtd">
<svg xmlns="http://www.w3.org/2000/svg" version="1.1" viewBox="0.00 0.00 512.00 512.00">
<path fill="#000000" d="
  M 29.32 0.00
  L 31.06 0.00
  Q 43.52 0.92 52.05 9.45
  Q 153.82 111.18 255.45 212.83
  A 0.79 0.78 -44.7 0 0 256.56 212.83
  Q 357.36 111.98 458.45 10.95
  Q 468.39 1.02 481.06 0.00
  L 482.81 0.00
  Q 508.86 3.13 512.00 29.30
  L 512.00 31.06
  Q 511.05 43.56 501.93 52.68
  Q 400.38 154.26 298.86 255.76
  A 0.34 0.34 0.0 0 0 298.86 256.24
  Q 400.51 357.87 502.16 459.58
  Q 511.08 468.51 512.00 481.06
  L 512.00 482.56
  C 510.31 500.23 499.55 509.95 482.41 512.00
  L 481.19 512.00
  Q 468.48 511.08 459.07 501.68
  Q 357.80 400.45 256.50 299.12
  Q 256.00 298.62 255.49 299.12
  Q 154.33 400.33 53.05 501.54
  Q 43.42 511.16 30.69 512.00
  L 29.69 512.00
  Q 3.18 509.18 0.00 482.67
  L 0.00 481.19
  C 0.69 471.08 4.81 464.57 11.94 457.44
  Q 112.50 356.88 212.86 256.51
  A 0.73 0.72 45.3 0 0 212.86 255.48
  Q 111.12 153.76 9.45 52.05
  Q 0.87 43.48 0.00 30.94
  L 0.00 29.20
  Q 3.17 3.06 29.32 0.00
  Z"
/>
</svg>
