<?xml version="1.0" encoding="UTF-8" standalone="no"?>
<!DOCTYPE svg PUBLIC "-//W3C//DTD SVG 1.1//EN" "http://www.w3.org/Graphics/SVG/1.1/DTD/svg11.dtd">
<svg xmlns="http://www.w3.org/2000/svg" version="1.1" viewBox="0.00 0.00 512.00 512.00">
<path fill="#000000" d="
  M 512.00 179.82
  L 512.00 183.57
  Q 510.97 226.35 490.92 262.94
  C 462.91 314.06 416.76 354.53 372.91 392.40
  Q 327.74 431.40 282.50 470.31
  Q 272.95 478.52 267.98 480.78
  Q 256.15 486.15 244.42 480.94
  Q 239.34 478.68 228.70 469.56
  Q 181.31 428.96 134.08 388.17
  Q 103.93 362.14 75.80 333.96
  C 34.61 292.70 1.38 244.38 0.00 183.94
  L 0.00 179.70
  Q 0.33 176.39 0.45 173.08
  C 3.31 95.10 61.06 28.88 141.32 28.12
  C 188.21 27.68 228.63 51.58 255.34 89.09
  A 0.81 0.80 -44.8 0 0 256.65 89.09
  C 281.34 54.66 318.57 30.47 361.50 28.27
  C 431.75 24.66 489.97 71.74 506.70 139.26
  Q 511.53 158.74 512.00 179.82
  Z
  M 39.52 231.59
  C 56.02 273.60 91.60 309.54 125.09 339.91
  C 167.63 378.49 211.82 415.48 255.23 452.92
  A 1.08 1.07 -44.8 0 0 256.64 452.92
  Q 304.15 412.16 351.17 371.67
  C 384.36 343.09 412.22 318.06 438.19 287.19
  C 473.53 245.17 491.35 198.57 476.61 143.50
  Q 468.65 113.78 448.93 92.58
  C 414.90 56.01 357.17 46.24 314.43 74.23
  C 297.26 85.47 283.46 101.41 272.59 119.07
  C 265.28 130.94 247.59 132.29 239.98 120.00
  C 213.54 77.27 173.15 49.29 120.74 60.26
  C 44.10 76.29 12.65 163.15 39.52 231.59
  Z"
/>
</svg>
