<?xml version="1.0" encoding="UTF-8" standalone="no"?>
<!DOCTYPE svg PUBLIC "-//W3C//DTD SVG 1.1//EN" "http://www.w3.org/Graphics/SVG/1.1/DTD/svg11.dtd">
<svg xmlns="http://www.w3.org/2000/svg" version="1.1" viewBox="0.00 0.00 512.00 512.00">
<path fill="#FF92A0" d="
  M 0.00 187.19
  L 0.00 177.45
  C 2.80 117.19 41.91 62.74 101.38 47.19
  C 154.59 33.28 203.90 51.37 240.51 90.50
  Q 247.80 98.30 255.39 105.84
  Q 255.77 106.22 256.21 105.91
  Q 259.03 103.90 259.90 102.90
  Q 277.18 83.00 292.81 71.06
  Q 338.45 36.17 394.75 43.98
  C 499.06 58.46 547.03 184.86 482.42 266.83
  Q 478.09 272.31 468.95 281.60
  Q 370.83 381.18 272.57 480.61
  Q 265.21 488.06 261.44 489.59
  C 252.72 493.13 246.96 488.24 240.59 481.79
  Q 149.35 389.35 58.12 296.89
  C 47.02 285.65 36.24 275.51 27.88 264.54
  Q 2.14 230.76 0.00 187.19
  Z"
/>
</svg>
